{
	"asset":{
		"generator":"Khronos glTF Blender I/O v4.5.48",
		"version":"2.0"
	},
	"scene":0,
	"scenes":[
		{
			"name":"Scene",
			"nodes":[
				0
			]
		}
	],
	"nodes":[
		{
			"mesh":0,
			"name":"Diamond.018",
			"rotation":[
				0.7306644916534424,
				0.2419860064983368,
				-0.6383523941040039,
				0.008855415508151054
			],
			"translation":[
				-21.470077514648438,
				-0.936607837677002,
				-5.443639755249023
			]
		}
	],
	"meshes":[
		{
			"name":"Cone.019",
			"primitives":[
				{
					"attributes":{
						"POSITION":0,
						"NORMAL":1,
						"TEXCOORD_0":2
					},
					"indices":3
				}
			]
		}
	],
	"accessors":[
		{
			"bufferView":0,
			"componentType":5126,
			"count":4536,
			"max":[
				4.374454498291016,
				17.9156436920166,
				8.509315490722656
			],
			"min":[
				-28.7421875,
				-10.998883247375488,
				-50.36735916137695
			],
			"type":"VEC3"
		},
		{
			"bufferView":1,
			"componentType":5126,
			"count":4536,
			"type":"VEC3"
		},
		{
			"bufferView":2,
			"componentType":5126,
			"count":4536,
			"type":"VEC2"
		},
		{
			"bufferView":3,
			"componentType":5123,
			"count":7704,
			"type":"SCALAR"
		}
	],
	"bufferViews":[
		{
			"buffer":0,
			"byteLength":54432,
			"byteOffset":0,
			"target":34962
		},
		{
			"buffer":0,
			"byteLength":54432,
			"byteOffset":54432,
			"target":34962
		},
		{
			"buffer":0,
			"byteLength":36288,
			"byteOffset":108864,
			"target":34962
		},
		{
			"buffer":0,
			"byteLength":15408,
			"byteOffset":145152,
			"target":34963
		}
	],
	"buffers":[
		{
			"byteLength":160560,
			"uri":"Floorassets.bin"
		}
	]
}
