{
	"asset":{
		"generator":"Khronos glTF Blender I/O v4.5.48",
		"version":"2.0"
	},
	"scene":0,
	"scenes":[
		{
			"name":"Scene",
			"nodes":[
				0
			]
		}
	],
	"nodes":[
		{
			"mesh":0,
			"name":"Diamond.009",
			"rotation":[
				-1,
				0,
				0,
				1.6292068494294654e-07
			],
			"translation":[
				-0.03579530119895935,
				17.412437438964844,
				-9.555355072021484
			]
		}
	],
	"meshes":[
		{
			"name":"Cone.010",
			"primitives":[
				{
					"attributes":{
						"POSITION":0,
						"NORMAL":1,
						"TEXCOORD_0":2
					},
					"indices":3
				}
			]
		}
	],
	"accessors":[
		{
			"bufferView":0,
			"componentType":5126,
			"count":2646,
			"max":[
				11.67562484741211,
				2.1793909072875977,
				11.21932601928711
			],
			"min":[
				-13.323369026184082,
				-5.731453895568848,
				-9.560012817382812
			],
			"type":"VEC3"
		},
		{
			"bufferView":1,
			"componentType":5126,
			"count":2646,
			"type":"VEC3"
		},
		{
			"bufferView":2,
			"componentType":5126,
			"count":2646,
			"type":"VEC2"
		},
		{
			"bufferView":3,
			"componentType":5123,
			"count":4494,
			"type":"SCALAR"
		}
	],
	"bufferViews":[
		{
			"buffer":0,
			"byteLength":31752,
			"byteOffset":0,
			"target":34962
		},
		{
			"buffer":0,
			"byteLength":31752,
			"byteOffset":31752,
			"target":34962
		},
		{
			"buffer":0,
			"byteLength":21168,
			"byteOffset":63504,
			"target":34962
		},
		{
			"buffer":0,
			"byteLength":8988,
			"byteOffset":84672,
			"target":34963
		}
	],
	"buffers":[
		{
			"byteLength":93660,
			"uri":"lighting.bin"
		}
	]
}
